<?xml version="1.0" standalone="no"?><svg xmlns="http://www.w3.org/2000/svg" viewBox="0 0 1440 320"><path fill="rgb(255,255,255)" fill-opacity="0.2" d="M0,32L21.8,64C43.6,96,87,160,131,165.3C174.5,171,218,117,262,96C305.5,75,349,85,393,101.3C436.4,117,480,139,524,154.7C567.3,171,611,181,655,186.7C698.2,192,742,192,785,165.3C829.1,139,873,85,916,53.3C960,21,1004,11,1047,26.7C1090.9,43,1135,85,1178,117.3C1221.8,149,1265,171,1309,149.3C1352.7,128,1396,64,1418,32L1440,0L1440,320L1418.2,320C1396.4,320,1353,320,1309,320C1265.5,320,1222,320,1178,320C1134.5,320,1091,320,1047,320C1003.6,320,960,320,916,320C872.7,320,829,320,785,320C741.8,320,698,320,655,320C610.9,320,567,320,524,320C480,320,436,320,393,320C349.1,320,305,320,262,320C218.2,320,175,320,131,320C87.3,320,44,320,22,320L0,320Z"></path></svg>
